<?xml version="1.0" encoding="UTF-8"?>
<svg id="Capa_4" data-name="Capa 4" xmlns="http://www.w3.org/2000/svg" viewBox="0 0 3212.5 3077.65">
  <defs>
    <style>
      .cls-1, .cls-2 {
        fill: #fff;
      }

      .cls-3 {
        fill: none;
      }

      .cls-2 {
        stroke: #1d1d1b;
        stroke-miterlimit: 10;
      }
    </style>
  </defs>
  <g>
    <path class="cls-2" d="M1950.36,1685.11c-70.5,26.47-144.81,39.89-220.86,39.89-346.56,0-628.5-281.94-628.5-628.5s281.94-628.5,628.5-628.5c121.37,0,239.15,34.65,340.59,100.2l50.89,32.88,323.04-323.04-69.81-51.79c-91.3-67.75-192.03-120.4-299.37-156.49-111.01-37.33-227.2-56.26-345.34-56.26-146.17,0-288.01,28.64-421.58,85.14-64.18,27.15-126.09,60.75-183.99,99.86-57.33,38.74-111.24,83.21-160.23,132.2-48.99,48.99-93.46,102.9-132.2,160.23-39.11,57.9-72.71,119.81-99.86,183.99-56.49,133.57-85.14,275.41-85.14,421.58s28.65,288.01,85.14,421.58c27.15,64.18,60.75,126.09,99.86,183.99,38.74,57.33,83.21,111.24,132.2,160.23,48.99,48.99,102.9,93.46,160.23,132.2,57.9,39.11,119.81,72.71,183.99,99.86,133.57,56.5,275.41,85.14,421.58,85.14,90.82,0,181.11-11.28,268.35-33.53,84.71-21.61,166.78-53.59,243.92-95.08l88.82-47.77-335-335-45.23,16.99Z"/>
    <polygon class="cls-2" points="1498.63 999 2566 2066.37 2566 999 1498.63 999"/>
  </g>
  <g>
    <rect class="cls-3" x="-.05" y="2339.83" width="3212.55" height="737.18"/>
    <path class="cls-1" d="M135.95,2365.82h154c238,0,357,97,357,291,0,65.34-13.5,129-40.5,191s-71.84,113.84-134.5,155.5c-62.67,41.67-144.34,62.5-245,62.5H35.95l100-700ZM440.45,2980.82c56.33-32.66,98.33-76.16,126-130.5,27.66-54.33,41.5-114.5,41.5-180.5,0-83.33-24.34-148.83-73-196.5-48.67-47.66-127-71.5-235-71.5h-125l-89,628h145c83.33,0,153.16-16.33,209.5-49Z"/>
    <path class="cls-1" d="M803.95,2365.82h1l49-3,1,3c-14,66.67-30.67,169.34-50,308l-55,392h-44l98-700Z"/>
    <path class="cls-1" d="M1034.94,3030.32c-45.34-31-78-70-98-117s-30-95.83-30-146.5c0-65.33,13.66-129.5,41-192.5,27.33-63,69.5-115.33,126.5-157,57-41.66,127.5-62.5,211.5-62.5,44.66,0,87.66,6.17,129,18.5,41.33,12.34,75,28.5,101,48.5l-8,42-4,3c-32-23.33-66.67-41.33-104-54-37.34-12.66-79.34-19-126-19-68.67,0-127.34,16.67-176,50-48.67,33.34-85.34,77.17-110,131.5-24.67,54.34-37,112.17-37,173.5,0,52.67,9.5,100.84,28.5,144.5,19,43.67,48.83,78.67,89.5,105,40.66,26.34,91.66,39.5,153,39.5,32.66,0,63.33-4,92-12,28.66-8,58.66-20,90-36l32-235c-50,1.34-123,2-219,2l5-36h15c78,0,160.66-2.33,248-7l4,3c-6.67,26-14.34,68.34-23,127l-24,172c-44,21.34-83.84,36.84-119.5,46.5-35.67,9.66-73.17,14.5-112.5,14.5-71.34,0-129.67-15.5-175-46.5Z"/>
    <path class="cls-1" d="M1652.94,2365.82h1l49-3,1,3c-14,66.67-30.67,169.34-50,308l-55,392h-44l98-700Z"/>
    <path class="cls-1" d="M1763.93,2401.82l7-36h499l-3,36c-76.67,0-153-1-229-3l-93,667h-44l93-667c-76,2-152.67,3-230,3Z"/>
    <path class="cls-1" d="M2468.92,2367.82l43-6,3,3c10,59.34,26.33,130,49,212l132,485-43,6-60-232h-345l-127,230h-45l393-698ZM2484.92,2404.82h-1c-18.67,35.34-35.67,67-51,95-15.34,28-28.34,52-39,72l-15,27-111,201h315l-52-202c-12-45.33-27.34-109.66-46-193Z"/>
    <path class="cls-1" d="M2765.92,3065.82l98-700h1l49-3,1,3c-14,66.67-30.67,169.34-50,308l-51,359c55.33-2,176.66-3,364-3l-10,36h-402Z"/>
  </g>
</svg>