<?xml version="1.0" encoding="UTF-8"?>
<svg id="Capa_4" data-name="Capa 4" xmlns="http://www.w3.org/2000/svg" viewBox="0 0 1920.5 2167">
  <defs>
    <style>
      .cls-1 {
        fill: #fff;
        stroke: #1d1d1b;
        stroke-miterlimit: 10;
      }
    </style>
  </defs>
  <path class="cls-1" d="M1304.36,1672.11c-70.5,26.47-144.81,39.89-220.86,39.89-346.56,0-628.5-281.94-628.5-628.5s281.94-628.5,628.5-628.5c121.37,0,239.15,34.65,340.59,100.2l50.89,32.88,323.04-323.04-69.81-51.79c-91.3-67.75-192.03-120.4-299.37-156.49C1317.83,19.43,1201.64.5,1083.5.5c-146.17,0-288.01,28.64-421.58,85.14-64.18,27.15-126.09,60.75-183.99,99.86-57.33,38.74-111.24,83.21-160.23,132.2-48.99,48.99-93.46,102.9-132.2,160.23-39.11,57.9-72.71,119.81-99.86,183.99C29.15,795.49.5,937.33.5,1083.5s28.65,288.01,85.14,421.58c27.15,64.18,60.75,126.09,99.86,183.99,38.74,57.33,83.21,111.24,132.2,160.23s102.9,93.46,160.23,132.2c57.9,39.11,119.81,72.71,183.99,99.86,133.57,56.5,275.41,85.14,421.58,85.14,90.82,0,181.11-11.28,268.35-33.53,84.71-21.61,166.78-53.59,243.92-95.08l88.82-47.77-335-335-45.23,16.99Z"/>
  <polygon class="cls-1" points="852.63 986 1920 2053.37 1920 986 852.63 986"/>
</svg>