<?xml version="1.0" encoding="UTF-8"?>
<svg id="Romec" xmlns="http://www.w3.org/2000/svg" viewBox="0 0 500 500">
  <defs>
    <style>
      .cls-1 {
        fill: #fff;
      }
    </style>
  </defs>
  <g id="Logo_blanco" data-name="Logo blanco">
    <path class="cls-1" d="M261.64,327.94c0-1.17-.29-2.02-1.17-2.39.78-.37,1.15-1.12,1.15-2.27v-.88c0-1.73-.78-2.58-2.61-2.58h-2.66v11.2h1.76v-4.56h.61c.8,0,1.15.38,1.15,1.42v1.76c0,.91.06,1.09.16,1.38h1.79c-.18-.42-.19-.82-.19-1.36v-1.73ZM259.86,323.68c0,.9-.4,1.18-1.06,1.18h-.69v-3.44h.85c.62,0,.9.35.9,1.15v1.1ZM267.89,319.82h1.67v8.53c0,1.79-.9,2.82-2.62,2.82s-2.62-1.02-2.62-2.82v-8.53h1.76v8.64c0,.8.35,1.09.91,1.09s.91-.29.91-1.09v-8.64ZM277.29,319.82h2.45v11.2h-1.67v-8.04l-1.22,8.04h-1.66l-1.31-7.92v7.92h-1.54v-11.2h2.45l1.3,7.96,1.2-7.96ZM247.81,319.82h1.67v8.53c0,1.79-.9,2.82-2.62,2.82s-2.62-1.02-2.62-2.82v-8.53h1.76v8.64c0,.8.35,1.09.91,1.09s.91-.29.91-1.09v-8.64ZM206.76,319.82h2.45v11.2h-1.67v-8.04l-1.22,8.04h-1.66l-1.31-7.92v7.92h-1.54v-11.2h2.45l1.3,7.96,1.2-7.96ZM195.05,319.82l-1.79,11.2h1.62l.3-2.03h2.16l.3,2.03h1.78l-1.79-11.2h-2.58ZM195.4,327.47l.85-5.67.85,5.67h-1.7ZM191.05,322.51v1.09h-1.66v-1.2c0-.8-.35-1.1-.91-1.1s-.91.3-.91,1.1v6.05c0,.8.35,1.09.91,1.09s.91-.29.91-1.09v-1.6h1.66v1.49c0,1.79-.9,2.82-2.62,2.82s-2.62-1.02-2.62-2.82v-5.83c0-1.79.9-2.82,2.62-2.82s2.62,1.02,2.62,2.82ZM226.15,319.82l-1.79,11.2h1.62l.3-2.03h2.16l.3,2.03h1.78l-1.79-11.2h-2.58ZM226.5,327.47l.85-5.67.85,5.67h-1.7ZM236.5,319.82h5.44v1.6h-1.84v9.6h-1.76v-9.6h-1.84v-1.6ZM216.22,325.05c.79-.37,1.14-1.1,1.14-2.26v-.4c0-1.73-.78-2.58-2.61-2.58h-2.66v11.2h2.77c1.76,0,2.67-.93,2.67-2.66v-.91c0-1.18-.37-2.03-1.31-2.4ZM213.85,321.42h.85c.62,0,.9.35.9,1.15v.62c0,.9-.4,1.18-1.06,1.18h-.69v-2.96ZM215.77,328.32c0,.83-.32,1.1-.91,1.1h-1.01v-3.44h.78c.8,0,1.14.32,1.14,1.36v.98ZM220.18,319.82h1.76v11.2h-1.76v-11.2ZM307.14,319.82h4.8v1.6h-3.04v3.12h2.42v1.6h-2.42v3.28h3.04v1.6h-4.8v-11.2ZM409.72,319.82h4.8v1.6h-3.04v3.12h2.42v1.6h-2.42v3.28h3.04v1.6h-4.8v-11.2ZM393.04,319.82h1.67v8.53c0,1.79-.9,2.82-2.62,2.82s-2.62-1.02-2.62-2.82v-8.53h1.76v8.64c0,.8.35,1.09.91,1.09s.91-.29.91-1.09v-8.64ZM404.37,319.82h-2.79v11.2h2.79c1.76,0,2.62-.98,2.62-2.77v-5.67c0-1.79-.86-2.77-2.62-2.77ZM405.24,328.33c0,.8-.34,1.09-.9,1.09h-.99v-8h.99c.56,0,.9.29.9,1.09v5.83ZM381.73,319.82h5.44v1.6h-1.84v9.6h-1.76v-9.6h-1.84v-1.6ZM367.3,327.94c0-1.17-.29-2.02-1.17-2.39.78-.37,1.15-1.12,1.15-2.27v-.88c0-1.73-.78-2.58-2.61-2.58h-2.66v11.2h1.76v-4.56h.61c.8,0,1.15.38,1.15,1.42v1.76c0,.91.06,1.09.16,1.38h1.79c-.18-.42-.19-.82-.19-1.36v-1.73ZM365.52,323.68c0,.9-.4,1.18-1.06,1.18h-.69v-3.44h.85c.62,0,.9.35.9,1.15v1.1ZM371.38,319.82l-1.79,11.2h1.62l.3-2.03h2.16l.3,2.03h1.78l-1.79-11.2h-2.58ZM371.73,327.47l.85-5.67.85,5.67h-1.7ZM440.72,319.82h1.57v11.2h-1.81l-2.19-8.12v8.12h-1.58v-11.2h2.21l1.81,6.71v-6.71ZM447.68,319.69c-1.73,0-2.67,1.02-2.67,2.82v5.83c0,1.79.94,2.82,2.67,2.82s2.67-1.02,2.67-2.82v-5.83c0-1.79-.94-2.82-2.67-2.82ZM448.6,328.45c0,.8-.35,1.1-.91,1.1s-.91-.3-.91-1.1v-6.05c0-.8.35-1.1.91-1.1s.91.3.91,1.1v6.05ZM354.21,319.82h5.44v1.6h-1.84v9.6h-1.76v-9.6h-1.84v-1.6ZM422.18,328.33c0,1.79-.9,2.82-2.62,2.82s-2.62-1.02-2.62-2.82v-.69h1.67v.8c0,.8.35,1.09.91,1.09s.91-.29.91-1.09c0-2.3-3.44-2.74-3.44-5.94,0-1.79.88-2.82,2.59-2.82s2.59,1.02,2.59,2.82v.35h-1.67v-.46c0-.8-.32-1.1-.88-1.1s-.88.3-.88,1.1c0,2.31,3.44,2.74,3.44,5.94ZM432.08,319.82h1.76v11.2h-1.76v-11.2ZM424.27,319.82h5.44v1.6h-1.84v9.6h-1.76v-9.6h-1.84v-1.6ZM293.24,319.69c-1.73,0-2.67,1.02-2.67,2.82v5.83c0,1.79.94,2.82,2.67,2.82s2.67-1.02,2.67-2.82v-5.83c0-1.79-.94-2.82-2.67-2.82ZM294.15,328.45c0,.8-.35,1.1-.91,1.1s-.91-.3-.91-1.1v-6.05c0-.8.35-1.1.91-1.1s.91.3.91,1.1v6.05ZM318.63,319.82h1.57v11.2h-1.81l-2.19-8.12v8.12h-1.58v-11.2h2.21l1.81,6.71v-6.71ZM328.17,322.51v1.09h-1.66v-1.2c0-.8-.35-1.1-.91-1.1s-.91.3-.91,1.1v6.05c0,.8.35,1.09.91,1.09s.91-.29.91-1.09v-1.6h1.66v1.49c0,1.79-.9,2.82-2.62,2.82s-2.62-1.02-2.62-2.82v-5.83c0-1.79.9-2.82,2.62-2.82s2.62,1.02,2.62,2.82ZM338.8,319.82h4.8v1.6h-3.04v3.12h2.42v1.6h-2.42v3.28h3.04v1.6h-4.8v-11.2ZM286.74,325.05c.79-.37,1.14-1.1,1.14-2.26v-.4c0-1.73-.78-2.58-2.61-2.58h-2.66v11.2h2.77c1.76,0,2.67-.93,2.67-2.66v-.91c0-1.18-.37-2.03-1.31-2.4ZM284.37,321.42h.85c.62,0,.9.35.9,1.15v.62c0,.9-.4,1.18-1.06,1.18h-.69v-2.96ZM286.29,328.32c0,.83-.32,1.1-.91,1.1h-1.01v-3.44h.78c.8,0,1.14.32,1.14,1.36v.98ZM298.48,329.33h1.7v1.52l-.77,1.78h-.72l.46-1.6h-.67v-1.7ZM334.34,319.82h1.67v8.53c0,1.79-.9,2.82-2.62,2.82s-2.62-1.02-2.62-2.82v-8.53h1.76v8.64c0,.8.35,1.09.91,1.09s.91-.29.91-1.09v-8.64ZM350.29,319.82h1.57v11.2h-1.81l-2.19-8.12v8.12h-1.58v-11.2h2.21l1.81,6.71v-6.71ZM315.65,184.79c-1.47-.32-4.07-2.49-4.07-2.49,0,0,5.66-.62,7.42-.37,1.76.25,3.2,2.54,3.2,2.54,0,0-5.07.64-6.54.32ZM327.78,192.68c-11.37-.54-20.5-1.06-22.65-1.39-6.24-.97-13.81-2.73-19.17-5.01,0,0,10.49,1.23,14.42,1.35,1.31.04,11.16.07,24.3.09l3.09,4.96ZM381.95,258.33h18.51v8.54h-17.09c-1.57,0-3.04.2-4.42.61-1.38.4-2.62,1.07-3.74,1.99s-2.06,2.16-2.85,3.7c-.78,1.54-1.32,3.48-1.6,5.8h29.69v8.54h-29.69c.28,2.33.82,4.26,1.6,5.8.78,1.54,1.73,2.78,2.85,3.7,1.12.93,2.36,1.59,3.74,1.99,1.38.4,2.85.61,4.42.61h17.09v8.54h-18.51c-2.94,0-5.71-.44-8.3-1.32-2.59-.88-4.85-2.29-6.8-4.24-1.95-1.95-3.48-4.51-4.59-7.69-1.12-3.18-1.67-7.07-1.67-11.68s.56-8.5,1.67-11.68c1.11-3.18,2.65-5.74,4.59-7.69s4.21-3.36,6.8-4.24c2.59-.88,5.35-1.32,8.3-1.32ZM448.52,308.18h-18.51c-2.94,0-5.71-.44-8.3-1.32-2.59-.88-4.85-2.29-6.8-4.24-1.95-1.95-3.48-4.51-4.59-7.69-1.12-3.18-1.67-7.07-1.67-11.68s.56-8.5,1.67-11.68c1.11-3.18,2.65-5.74,4.59-7.69s4.21-3.36,6.8-4.24c2.59-.88,5.35-1.32,8.3-1.32h18.51v8.54h-17.09c-1.76,0-3.42.26-4.98.78-1.57.52-2.93,1.41-4.09,2.67-1.16,1.26-2.08,2.93-2.74,5.02-.67,2.09-1,4.72-1,7.9s.33,5.82,1,7.9c.66,2.09,1.58,3.76,2.74,5.02,1.16,1.26,2.53,2.15,4.09,2.67s3.23.78,4.98.78h17.09v8.54ZM229.97,284.11c1.02-1.23,1.82-2.74,2.39-4.52.57-1.78.85-3.88.85-6.3,0-2.75-.42-5.09-1.25-7.01-.83-1.92-1.98-3.46-3.45-4.63-1.47-1.16-3.18-2-5.13-2.53-1.95-.52-4.01-.78-6.19-.78h-29.55v49.84h9.97v-19.22h13.46l10.54,19.22h11.53l-11.32-19.58c1.61-.33,3.12-.85,4.52-1.57,1.4-.71,2.61-1.68,3.63-2.92ZM221.46,278.88c-1.19,1.02-2.61,1.53-4.27,1.53h-19.58v-13.53h19.58c1.66,0,3.08.48,4.27,1.42,1.19.95,1.78,2.61,1.78,4.98,0,2.71-.59,4.57-1.78,5.59ZM194.42,196.48l-2.73-9.67s10.73-1.14,29.28-7.39,62-14.69,89.52-11.26c21.02,2.62,36.94,14.25,43.31,19.61,20.23.04,40.14.1,47.47.2,16.53.23,23.27,2.99,35.12,10.79,3.39,2.23,6.02,4.22,8.07,5.92h-8.34c-4.96-3.26-13.46-7.56-24.5-8.21-18.12-1.06-23.92,6.24-23.92,6.24,0,0,3.63-7.04,17.15-9.94,0,0-13.45,2.02-20.67,2.02-4.56,0-32.46-1.02-53.94-2.01l-3.51-5.07c3.1,0,6.36.01,9.71.02-5.84-4.33-20.96-14.78-39.95-15.64-23.39-1.06-40.1,6.35-40.1,6.35l4.84,6.42c-6.24-2.55-25.77-3.69-37.81-.26-12.05,3.43-29.02,4.4-29.02,4.4v7.47ZM281.59,263.03c-2.21-2.04-4.78-3.51-7.73-4.42-2.94-.9-6.05-1.35-9.33-1.35s-6.53.45-9.47,1.35c-2.94.9-5.51,2.38-7.69,4.42-2.18,2.04-3.9,4.72-5.16,8.05-1.26,3.32-1.89,7.38-1.89,12.17s.63,8.85,1.89,12.18c1.26,3.32,2.98,6.01,5.16,8.05,2.18,2.04,4.75,3.51,7.69,4.41,2.94.9,6.1,1.35,9.47,1.35s6.38-.45,9.33-1.35c2.94-.9,5.52-2.37,7.73-4.41,2.21-2.04,3.95-4.72,5.23-8.05,1.28-3.32,1.92-7.38,1.92-12.18s-.64-8.85-1.92-12.17c-1.28-3.32-3.03-6-5.23-8.05ZM277.64,291.69c-.76,2.25-1.78,4.05-3.06,5.38-1.28,1.33-2.79,2.27-4.52,2.81-1.73.55-3.57.82-5.52.82s-3.86-.27-5.59-.82c-1.73-.54-3.24-1.48-4.52-2.81-1.28-1.33-2.29-3.12-3.03-5.38-.74-2.25-1.1-5.07-1.1-8.44s.37-6.18,1.1-8.44c.74-2.25,1.74-4.05,3.03-5.38,1.28-1.33,2.79-2.27,4.52-2.81,1.73-.54,3.6-.82,5.59-.82s3.78.27,5.52.82c1.73.55,3.24,1.48,4.52,2.81,1.28,1.33,2.3,3.12,3.06,5.38.76,2.25,1.14,5.07,1.14,8.44s-.38,6.18-1.14,8.44ZM338.01,258.33h14.38v49.84h-9.75v-34.96l-12.6,34.96h-10.75l-12.39-34.96v34.96h-9.97v-49.84h14.38l13.31,36.95,13.39-36.95ZM434.85,229.41l-8.39,18.83h4.2l1.59-3.77h9.28l1.59,3.77h4.2l-8.39-18.83h-4.06ZM433.62,241.24l3.25-7.69,3.28,7.69h-6.54ZM417.84,239.14c.39-.47.69-1.04.9-1.71.22-.67.32-1.47.32-2.38,0-1.04-.16-1.92-.47-2.65-.31-.73-.75-1.31-1.3-1.75-.56-.44-1.2-.76-1.94-.96s-1.52-.3-2.34-.3h-11.16v18.83h3.77v-7.26h5.08l3.98,7.26h4.36l-4.28-7.4c.61-.12,1.18-.32,1.71-.59.53-.27.99-.64,1.37-1.1ZM414.63,237.17c-.45.39-.99.58-1.61.58h-7.4v-5.11h7.4c.63,0,1.17.18,1.61.54.45.36.67.99.67,1.88,0,1.02-.22,1.73-.67,2.11ZM314.95,220.54v-7.3h7.3v7.3h-7.3ZM387.08,229.51c-1.11-.34-2.29-.51-3.52-.51s-2.47.17-3.58.51c-1.11.34-2.08.9-2.91,1.67-.83.77-1.48,1.79-1.95,3.04-.47,1.25-.71,2.79-.71,4.6s.24,3.35.71,4.6c.48,1.26,1.13,2.27,1.95,3.04.82.77,1.79,1.33,2.91,1.67,1.11.34,2.3.51,3.58.51s2.41-.17,3.52-.51c1.11-.34,2.08-.9,2.92-1.67.83-.77,1.49-1.78,1.98-3.04.48-1.25.73-2.79.73-4.6s-.24-3.34-.73-4.6c-.48-1.25-1.14-2.27-1.98-3.04-.83-.77-1.81-1.33-2.92-1.67ZM388.5,242.01c-.29.85-.67,1.53-1.16,2.03-.48.5-1.05.86-1.71,1.06s-1.35.31-2.08.31-1.46-.1-2.11-.31c-.66-.21-1.22-.56-1.71-1.06-.48-.5-.87-1.18-1.14-2.03-.28-.85-.42-1.91-.42-3.19s.14-2.33.42-3.19c.28-.85.66-1.53,1.14-2.03.48-.5,1.05-.86,1.71-1.06.65-.21,1.36-.31,2.11-.31s1.43.1,2.08.31,1.22.56,1.71,1.06c.48.5.87,1.18,1.16,2.03.29.85.43,1.92.43,3.19s-.14,2.34-.43,3.19ZM362.95,220.54v-7.3h7.3v7.3h-7.3ZM418.25,220.54h-7.3v-7.3h7.3v7.3ZM217.9,213.24h7.3v7.3h-7.3v-7.3ZM194.63,244.47h9.28l1.59,3.77h4.2l-8.39-18.83h-4.06l-8.39,18.83h4.2l1.59-3.77ZM199.26,233.55l3.28,7.69h-6.54l3.25-7.69ZM230.14,229.41h3.77v11.03c0,1.56-.23,2.87-.69,3.91-.46,1.05-1.08,1.89-1.86,2.53-.78.64-1.69,1.09-2.73,1.36-1.04.27-2.15.4-3.34.4s-2.3-.13-3.35-.4c-1.05-.27-1.96-.72-2.74-1.36s-1.39-1.48-1.84-2.53c-.45-1.05-.67-2.35-.67-3.91v-11.03h3.77v11.03c0,.95.12,1.74.38,2.38.25.64.6,1.15,1.04,1.53.44.39.95.66,1.53.82.58.16,1.21.24,1.9.24s1.29-.08,1.87-.24c.58-.16,1.09-.43,1.53-.82.44-.38.79-.9,1.05-1.53.26-.64.39-1.43.39-2.38v-11.03ZM366.98,232.63h-6.73v15.6h-3.77v-15.6h-6.73v-3.23h17.22v3.23ZM274.57,220.54h-7.3v-7.3h7.3v7.3ZM326.71,246.46c.82.77,1.79,1.33,2.91,1.67,1.11.34,2.3.51,3.58.51s2.41-.17,3.52-.51c1.11-.34,2.08-.9,2.92-1.67.83-.77,1.49-1.78,1.98-3.04.48-1.25.73-2.79.73-4.6s-.24-3.34-.73-4.6c-.48-1.25-1.14-2.27-1.98-3.04-.83-.77-1.81-1.33-2.92-1.67-1.11-.34-2.29-.51-3.52-.51s-2.47.17-3.58.51c-1.11.34-2.08.9-2.91,1.67-.83.77-1.48,1.79-1.95,3.04-.47,1.25-.71,2.79-.71,4.6s.24,3.35.71,4.6c.48,1.26,1.13,2.27,1.95,3.04ZM328.23,235.63c.28-.85.66-1.53,1.14-2.03.48-.5,1.05-.86,1.71-1.06.65-.21,1.36-.31,2.11-.31s1.43.1,2.08.31,1.22.56,1.71,1.06c.48.5.87,1.18,1.16,2.03.29.85.43,1.92.43,3.19s-.14,2.34-.43,3.19-.67,1.53-1.16,2.03c-.48.5-1.05.86-1.71,1.06s-1.35.31-2.08.31-1.46-.1-2.11-.31c-.66-.21-1.22-.56-1.71-1.06-.48-.5-.87-1.18-1.14-2.03-.28-.85-.42-1.91-.42-3.19s.14-2.33.42-3.19ZM248.59,248.24v-15.6h-6.73v-3.23h17.22v3.23h-6.73v15.6h-3.77ZM266.51,238.82c0,1.81.24,3.35.71,4.6.48,1.26,1.12,2.27,1.95,3.04.83.77,1.79,1.33,2.91,1.67,1.11.34,2.3.51,3.58.51s2.41-.17,3.52-.51c1.11-.34,2.08-.9,2.92-1.67.83-.77,1.49-1.78,1.98-3.04.48-1.25.73-2.79.73-4.6s-.24-3.34-.73-4.6c-.48-1.25-1.14-2.27-1.98-3.04-.83-.77-1.81-1.33-2.92-1.67-1.11-.34-2.29-.51-3.52-.51s-2.47.17-3.58.51-2.08.9-2.91,1.67c-.83.77-1.47,1.79-1.95,3.04s-.71,2.79-.71,4.6ZM270.69,235.63c.28-.85.66-1.53,1.14-2.03.48-.5,1.05-.86,1.71-1.06.65-.21,1.36-.31,2.11-.31s1.43.1,2.08.31c.65.21,1.22.56,1.71,1.06.48.5.87,1.18,1.16,2.03.29.85.43,1.92.43,3.19s-.14,2.34-.43,3.19-.67,1.53-1.16,2.03c-.48.5-1.05.86-1.71,1.06-.66.21-1.35.31-2.08.31s-1.46-.1-2.11-.31c-.66-.21-1.22-.56-1.71-1.06-.48-.5-.87-1.18-1.14-2.03-.28-.85-.42-1.91-.42-3.19s.14-2.33.42-3.19ZM311.22,248.24v-13.21l-4.76,13.21h-4.06l-4.68-13.21v13.21h-3.77v-18.83h5.43l5.03,13.96,5.06-13.96h5.43v18.83h-3.69ZM84.85,263.99l39.9,44.89c-4.64,1.14-9.48,1.75-14.47,1.75-33.49,0-60.63-27.15-60.63-60.63,0-8.27,1.66-16.14,4.65-23.32h60.65c10.28,0,18.66,8.37,18.66,18.66s-8.37,18.66-18.66,18.66h-30.1ZM170.91,250c0,21.5-11.19,40.39-28.07,51.15l-17.71-19.92c15.64-4.44,27.12-18.85,27.12-35.9,0-20.58-16.74-37.31-37.31-37.31h-48.41c11.03-11.5,26.55-18.66,43.75-18.66,33.49,0,60.63,27.15,60.63,60.63Z"/>
  </g>
</svg>