<?xml version="1.0" encoding="UTF-8"?>
<svg id="Romec" xmlns="http://www.w3.org/2000/svg" viewBox="0 0 400.71 123.48">
  <defs>
    <style>
      .cls-1 {
        fill: #fff;
      }
    </style>
  </defs>
  <path class="cls-1" d="M66.22,76.1c10.28,0,18.66-8.37,18.66-18.66s-8.37-18.66-18.66-18.66H5.57c-3,7.18-4.65,15.05-4.65,23.32,0,33.49,27.15,60.63,60.63,60.63,4.99,0,9.83-.61,14.47-1.75l-39.9-44.89h30.1Z"/>
  <path class="cls-1" d="M61.55,1.48c-17.2,0-32.72,7.16-43.75,18.66h48.41c20.57,0,37.31,16.73,37.31,37.31,0,17.05-11.49,31.46-27.12,35.9l17.71,19.92c16.87-10.76,28.07-29.65,28.07-51.15C122.19,28.62,95.04,1.48,61.55,1.48Z"/>
  <polygon class="cls-1" points="203.64 38.36 203.64 22.75 210.36 22.75 210.36 19.52 193.14 19.52 193.14 22.75 199.87 22.75 199.87 38.36 203.64 38.36"/>
  <path class="cls-1" d="M145.91,34.59h9.28l1.59,3.77h4.2l-8.39-18.83h-4.06l-8.39,18.83h4.2l1.59-3.77ZM150.53,23.67l3.28,7.69h-6.54l3.25-7.69Z"/>
  <path class="cls-1" d="M373.63,60.45c1.16-1.26,2.53-2.15,4.09-2.67,1.57-.52,3.23-.78,4.98-.78h17.09v-8.54h-18.51c-2.94,0-5.71.44-8.3,1.32-2.59.88-4.85,2.29-6.8,4.24s-3.48,4.51-4.59,7.69c-1.12,3.18-1.67,7.07-1.67,11.68s.56,8.5,1.67,11.68c1.11,3.18,2.65,5.74,4.59,7.69,1.95,1.95,4.21,3.36,6.8,4.24,2.59.88,5.35,1.32,8.3,1.32h18.51v-8.54h-17.09c-1.76,0-3.42-.26-4.98-.78s-2.93-1.41-4.09-2.67c-1.16-1.26-2.08-2.93-2.74-5.02-.67-2.09-1-4.72-1-7.9s.33-5.81,1-7.9c.66-2.09,1.58-3.76,2.74-5.02Z"/>
  <path class="cls-1" d="M386.13,19.52l-8.39,18.83h4.2l1.59-3.77h9.28l1.59,3.77h4.2l-8.39-18.83h-4.06ZM384.89,31.36l3.25-7.69,3.28,7.69h-6.54Z"/>
  <polygon class="cls-1" points="266.18 38.36 266.18 19.52 260.75 19.52 255.69 33.49 250.66 19.52 245.22 19.52 245.22 38.36 248.99 38.36 248.99 25.15 253.67 38.36 257.73 38.36 262.49 25.15 262.49 38.36 266.18 38.36"/>
  <path class="cls-1" d="M338.35,19.63c-1.11-.34-2.29-.51-3.52-.51s-2.47.17-3.58.51c-1.11.34-2.08.9-2.91,1.67-.83.77-1.48,1.79-1.95,3.04-.47,1.25-.71,2.79-.71,4.6s.24,3.35.71,4.6c.48,1.26,1.13,2.27,1.95,3.04.82.77,1.79,1.33,2.91,1.67,1.11.34,2.3.51,3.58.51s2.41-.17,3.52-.51c1.11-.34,2.08-.9,2.92-1.67.83-.77,1.49-1.78,1.98-3.04.48-1.25.73-2.79.73-4.6s-.24-3.34-.73-4.6c-.48-1.25-1.14-2.27-1.98-3.04-.83-.77-1.81-1.33-2.92-1.67ZM339.78,32.13c-.29.85-.67,1.53-1.16,2.03-.48.5-1.05.86-1.71,1.06s-1.35.31-2.08.31-1.46-.1-2.11-.31c-.66-.21-1.22-.56-1.71-1.06-.48-.5-.87-1.18-1.14-2.03-.28-.85-.42-1.91-.42-3.19s.14-2.33.42-3.19c.28-.85.66-1.53,1.14-2.03.48-.5,1.05-.86,1.71-1.06.65-.21,1.36-.31,2.11-.31s1.43.1,2.08.31,1.22.56,1.71,1.06c.48.5.87,1.18,1.16,2.03.29.85.43,1.92.43,3.19s-.14,2.34-.43,3.19Z"/>
  <path class="cls-1" d="M353.12,38.36h3.77v-7.26h5.08l3.98,7.26h4.36l-4.28-7.4c.61-.12,1.18-.32,1.71-.59.53-.27.99-.64,1.37-1.1.39-.47.69-1.04.9-1.71.22-.67.32-1.47.32-2.38,0-1.04-.16-1.92-.47-2.65-.31-.73-.75-1.31-1.3-1.75-.56-.44-1.2-.76-1.94-.96s-1.52-.3-2.34-.3h-11.16v18.83ZM356.89,22.75h7.4c.63,0,1.17.18,1.61.54.45.36.67.99.67,1.88,0,1.02-.22,1.73-.67,2.11-.45.39-.99.58-1.61.58h-7.4v-5.11Z"/>
  <path class="cls-1" d="M217.78,28.94c0,1.81.24,3.35.71,4.6.48,1.26,1.12,2.27,1.95,3.04.83.77,1.79,1.33,2.91,1.67,1.11.34,2.3.51,3.58.51s2.41-.17,3.52-.51c1.11-.34,2.08-.9,2.92-1.67.83-.77,1.49-1.78,1.98-3.04.48-1.25.73-2.79.73-4.6s-.24-3.34-.73-4.6c-.48-1.25-1.14-2.27-1.98-3.04-.83-.77-1.81-1.33-2.92-1.67-1.11-.34-2.29-.51-3.52-.51s-2.47.17-3.58.51-2.08.9-2.91,1.67c-.83.77-1.47,1.79-1.95,3.04s-.71,2.79-.71,4.6ZM221.97,25.75c.28-.85.66-1.53,1.14-2.03.48-.5,1.05-.86,1.71-1.06.65-.21,1.36-.31,2.11-.31s1.43.1,2.08.31c.65.21,1.22.56,1.71,1.06.48.5.87,1.18,1.16,2.03.29.85.43,1.92.43,3.19s-.14,2.34-.43,3.19-.67,1.53-1.16,2.03c-.48.5-1.05.86-1.71,1.06-.66.21-1.35.31-2.08.31s-1.46-.1-2.11-.31c-.66-.21-1.22-.56-1.71-1.06-.48-.5-.87-1.18-1.14-2.03-.28-.85-.42-1.91-.42-3.19s.14-2.33.42-3.19Z"/>
  <path class="cls-1" d="M277.99,36.58c.82.77,1.79,1.33,2.91,1.67,1.11.34,2.3.51,3.58.51s2.41-.17,3.52-.51c1.11-.34,2.08-.9,2.92-1.67.83-.77,1.49-1.78,1.98-3.04.48-1.25.73-2.79.73-4.6s-.24-3.34-.73-4.6c-.48-1.25-1.14-2.27-1.98-3.04-.83-.77-1.81-1.33-2.92-1.67-1.11-.34-2.29-.51-3.52-.51s-2.47.17-3.58.51c-1.11.34-2.08.9-2.91,1.67-.83.77-1.48,1.79-1.95,3.04-.47,1.25-.71,2.79-.71,4.6s.24,3.35.71,4.6c.48,1.26,1.13,2.27,1.95,3.04ZM279.51,25.75c.28-.85.66-1.53,1.14-2.03.48-.5,1.05-.86,1.71-1.06.65-.21,1.36-.31,2.11-.31s1.43.1,2.08.31,1.22.56,1.71,1.06c.48.5.87,1.18,1.16,2.03.29.85.43,1.92.43,3.19s-.14,2.34-.43,3.19-.67,1.53-1.16,2.03c-.48.5-1.05.86-1.71,1.06s-1.35.31-2.08.31-1.46-.1-2.11-.31c-.66-.21-1.22-.56-1.71-1.06-.48-.5-.87-1.18-1.14-2.03-.28-.85-.42-1.91-.42-3.19s.14-2.33.42-3.19Z"/>
  <polygon class="cls-1" points="318.26 19.52 301.04 19.52 301.04 22.75 307.77 22.75 307.77 38.36 311.53 38.36 311.53 22.75 318.26 22.75 318.26 19.52"/>
  <path class="cls-1" d="M318.13,92.74c1.95,1.95,4.21,3.36,6.8,4.24,2.59.88,5.35,1.32,8.3,1.32h18.51v-8.54h-17.09c-1.57,0-3.04-.2-4.42-.61-1.38-.4-2.62-1.07-3.74-1.99-1.12-.92-2.06-2.16-2.85-3.7-.78-1.54-1.32-3.48-1.6-5.8h29.69v-8.54h-29.69c.28-2.33.82-4.26,1.6-5.8.78-1.54,1.73-2.78,2.85-3.7s2.36-1.59,3.74-1.99c1.38-.4,2.85-.61,4.42-.61h17.09v-8.54h-18.51c-2.94,0-5.71.44-8.3,1.32-2.59.88-4.85,2.29-6.8,4.24s-3.48,4.51-4.59,7.69c-1.12,3.18-1.67,7.07-1.67,11.68s.56,8.5,1.67,11.68c1.11,3.18,2.65,5.74,4.59,7.69Z"/>
  <polygon class="cls-1" points="275.9 85.41 262.59 48.45 248.21 48.45 248.21 98.29 258.18 98.29 258.18 63.33 270.56 98.29 281.32 98.29 293.92 63.33 293.92 98.29 303.67 98.29 303.67 48.45 289.29 48.45 275.9 85.41"/>
  <path class="cls-1" d="M181.24,74.23c1.02-1.23,1.82-2.74,2.39-4.52.57-1.78.85-3.88.85-6.3,0-2.75-.42-5.09-1.25-7.01-.83-1.92-1.98-3.46-3.45-4.63-1.47-1.16-3.18-2-5.13-2.53-1.95-.52-4.01-.78-6.19-.78h-29.55v49.84h9.97v-19.22h13.46l10.54,19.22h11.53l-11.32-19.58c1.61-.33,3.12-.85,4.52-1.57,1.4-.71,2.61-1.68,3.63-2.92ZM172.73,68.99c-1.19,1.02-2.61,1.53-4.27,1.53h-19.58v-13.53h19.58c1.66,0,3.08.48,4.27,1.42,1.19.95,1.78,2.61,1.78,4.98,0,2.71-.59,4.57-1.78,5.59Z"/>
  <path class="cls-1" d="M181.42,30.55c0,.95-.13,1.74-.39,2.38-.26.64-.61,1.15-1.05,1.53-.44.39-.95.66-1.53.82-.58.16-1.21.24-1.87.24s-1.31-.08-1.9-.24c-.58-.16-1.09-.43-1.53-.82-.44-.38-.78-.9-1.04-1.53-.25-.64-.38-1.43-.38-2.38v-11.03h-3.77v11.03c0,1.56.22,2.87.67,3.91.45,1.05,1.06,1.89,1.84,2.53s1.69,1.09,2.74,1.36c1.05.27,2.17.4,3.35.4s2.3-.13,3.34-.4c1.04-.27,1.95-.72,2.73-1.36.78-.64,1.4-1.48,1.86-2.53.46-1.05.69-2.35.69-3.91v-11.03h-3.77v11.03Z"/>
  <path class="cls-1" d="M232.86,53.15c-2.21-2.04-4.78-3.51-7.73-4.42-2.94-.9-6.05-1.35-9.33-1.35s-6.53.45-9.47,1.35c-2.94.9-5.51,2.38-7.69,4.42-2.18,2.04-3.9,4.72-5.16,8.05-1.26,3.32-1.89,7.38-1.89,12.17s.63,8.85,1.89,12.18c1.26,3.32,2.98,6.01,5.16,8.05,2.18,2.04,4.75,3.51,7.69,4.41,2.94.9,6.1,1.35,9.47,1.35s6.38-.45,9.33-1.35c2.94-.9,5.52-2.37,7.73-4.41,2.21-2.04,3.95-4.72,5.23-8.05,1.28-3.32,1.92-7.38,1.92-12.18s-.64-8.85-1.92-12.17c-1.28-3.32-3.03-6-5.23-8.05ZM228.91,81.81c-.76,2.25-1.78,4.05-3.06,5.38-1.28,1.33-2.79,2.27-4.52,2.81-1.73.55-3.57.82-5.52.82s-3.86-.27-5.59-.82c-1.73-.54-3.24-1.48-4.52-2.81-1.28-1.33-2.29-3.12-3.03-5.38-.74-2.25-1.1-5.07-1.1-8.44s.37-6.18,1.1-8.44c.74-2.25,1.74-4.05,3.03-5.38,1.28-1.33,2.79-2.27,4.52-2.81,1.73-.54,3.6-.82,5.59-.82s3.78.27,5.52.82c1.73.55,3.24,1.48,4.52,2.81,1.28,1.33,2.3,3.12,3.06,5.38.76,2.25,1.14,5.07,1.14,8.44s-.38,6.18-1.14,8.44Z"/>
</svg>